<mxfile host="app.diagrams.net" modified="2024-03-01T10:52:29.376Z" agent="Mozilla/5.0 (Windows NT 10.0; Win64; x64) AppleWebKit/537.36 (KHTML, like Gecko) Chrome/123.0.0.0 Safari/537.36 Edg/123.0.0.0" version="24.0.0" etag="RHoKqk7B9KHZlgweM0xt" type="github">
  <diagram name="第 1 页" id="sPdsaa9qtR7_xZCvfwiY">
    <mxGraphModel>
      <root>
        <mxCell id="0" />
        <mxCell id="1" parent="0" />
      </root>
    </mxGraphModel>
  </diagram>
</mxfile>
